<?xml version="1.0" encoding="UTF-8" standalone="no"?>
<!-- Created with Inkscape (http://www.inkscape.org/) -->

<svg
   xmlns:dc="http://purl.org/dc/elements/1.1/"
   xmlns:cc="http://creativecommons.org/ns#"
   xmlns:rdf="http://www.w3.org/1999/02/22-rdf-syntax-ns#"
   xmlns:svg="http://www.w3.org/2000/svg"
   xmlns="http://www.w3.org/2000/svg"
   xmlns:inkscape="http://www.inkscape.org/namespaces/inkscape"
   version="1.1"
   width="87.925003"
   height="87.925003"
   id="svg2"
   xml:space="preserve"><metadata
     id="metadata8"><rdf:RDF><cc:Work
         rdf:about=""><dc:format>image/svg+xml</dc:format><dc:type
           rdf:resource="http://purl.org/dc/dcmitype/StillImage" /></cc:Work></rdf:RDF></metadata><defs
     id="defs6" /><g
     transform="matrix(1.25,0,0,-1.25,0,87.925)"
     id="g10"><g
       transform="scale(0.1,0.1)"
       id="g12"><path
         d="m 692.371,416.363 c 1.68,-0.336 3.406,-0.586 5.129,-0.894 C 675.184,535.84 590.684,640.379 468.738,683.301 479.727,551.48 568.809,440.918 692.371,416.363"
         inkscape:connector-curvature="0"
         id="path14"
         style="fill:#f25047;fill-opacity:1;fill-rule:nonzero;stroke:none" /><path
         d="m 142.191,536.531 c 4.672,-0.929 9.395,-1.754 14.161,-2.469 124.121,-18.46 243.109,43.547 312.113,149.34 -5.762,2.02 -11.594,3.914 -17.527,5.657 C 305.57,731.82 154.633,676.305 69.2852,561.34 92.0781,550.105 116.453,541.648 142.191,536.531"
         inkscape:connector-curvature="0"
         id="path16"
         style="fill:#4b9fce;fill-opacity:1;fill-rule:nonzero;stroke:none" /><path
         d="M 577.477,238.719 C 563.211,184.781 564.207,130.438 577.305,81.9883 628.848,125.027 668.68,183.238 689.051,252.492 704.148,303.82 706.934,355.832 699.234,405.418 643.301,373.59 597.508,314.605 577.477,238.719"
         inkscape:connector-curvature="0"
         id="path18"
         style="fill:#f25047;fill-opacity:1;fill-rule:nonzero;stroke:none" /><path
         d="m 502.117,126.148 c -5.769,1.832 -11.523,3.317 -17.324,4.469 C 403.25,146.828 320.125,96.0039 279.457,8.15625 279.23,8.17969 279.047,8.22266 278.816,8.23828 275.258,91.4766 229.441,164.488 159.035,186.945 c -5.223,1.66 -10.48,3.012 -15.742,4.051 -33.066,6.582 -66.3594,0.926 -96.4844,-14.246 C 90.3281,100.891 161.949,41.0078 252.473,14.375 368.23,-19.6719 487.488,8.61328 574.383,79.5859 554.402,100.949 530.059,117.238 502.117,126.148"
         inkscape:connector-curvature="0"
         id="path20"
         style="fill:#87cf33;fill-opacity:1;fill-rule:nonzero;stroke:none" /><path
         d="M 89.8516,322.219 C 101.617,401.383 88.2539,477.883 56.2812,542.43 38.4375,514.758 24.1289,484.148 14.3672,450.949 -12.7656,358.691 -0.28125,264.219 41.8086,185.672 c 23.7852,40.422 40.5859,86.496 48.043,136.547"
         inkscape:connector-curvature="0"
         id="path22"
         style="fill:#4b9fce;fill-opacity:1;fill-rule:nonzero;stroke:none" /></g></g></svg>